HIERARCHY
ROOT joint_Root
{
	OFFSET 0.0 0.0 0.0
	CHANNELS 6 Xposition Yposition Zposition Zrotation Xrotation Yrotation 
	JOINT Hips
	{
		OFFSET -17.1583 93.1646 452.98
		CHANNELS 6 Xposition Yposition Zposition Zrotation Xrotation Yrotation 
		JOINT Spine
		{
			OFFSET 15.7357 0.0 0.0
			CHANNELS 6 Xposition Yposition Zposition Zrotation Xrotation Yrotation 
			JOINT Chest
			{
				OFFSET 8.98455 -0.406207 0.0
				CHANNELS 6 Xposition Yposition Zposition Zrotation Xrotation Yrotation 
				JOINT Neck
				{
					OFFSET 16.3773 0.0 0.0
					CHANNELS 6 Xposition Yposition Zposition Zrotation Xrotation Yrotation 
					JOINT Head
					{
						OFFSET 6.45672 0.0 0.0
						CHANNELS 6 Xposition Yposition Zposition Zrotation Xrotation Yrotation 
						End Site
						{
							OFFSET 0.0 0.0 0.0
						}
					}
				}
				JOINT Shoulder_L
				{
					OFFSET 12.9942 -0.242716 4.98039
					CHANNELS 6 Xposition Yposition Zposition Zrotation Xrotation Yrotation 
					JOINT UpperArm_L
					{
						OFFSET 5.34809 0.0 0.0
						CHANNELS 6 Xposition Yposition Zposition Zrotation Xrotation Yrotation 
						JOINT LowerArm_L
						{
							OFFSET 24.3286 1.87007e-05 0.0
							CHANNELS 6 Xposition Yposition Zposition Zrotation Xrotation Yrotation 
							JOINT Hand_L
							{
								OFFSET 22.2916 0.0 0.0
								CHANNELS 6 Xposition Yposition Zposition Zrotation Xrotation Yrotation 
								End Site
								{
									OFFSET 0.0 0.0 0.0
								}
							}
						}
					}
				}
				JOINT Shoulder_R
				{
					OFFSET 12.9945 -0.242716 -4.98039
					CHANNELS 6 Xposition Yposition Zposition Zrotation Xrotation Yrotation 
					JOINT UpperArm_R
					{
						OFFSET -5.34813 0.0 0.0
						CHANNELS 6 Xposition Yposition Zposition Zrotation Xrotation Yrotation 
						JOINT LowerArm_R
						{
							OFFSET -24.3289 0.000322201 0.0
							CHANNELS 6 Xposition Yposition Zposition Zrotation Xrotation Yrotation 
							JOINT Hand_R
							{
								OFFSET -22.2915 -0.000108084 0.0
								CHANNELS 6 Xposition Yposition Zposition Zrotation Xrotation Yrotation 
								End Site
								{
									OFFSET 0.0 0.0 0.0
								}
							}
						}
					}
				}
			}
		}
		JOINT UpperLeg_L
		{
			OFFSET -2.19248 -6.46944 0.0
			CHANNELS 6 Xposition Yposition Zposition Zrotation Xrotation Yrotation 
			JOINT LowerLeg_L
			{
				OFFSET 39.0811 0.0 -1.23785e-05
				CHANNELS 6 Xposition Yposition Zposition Zrotation Xrotation Yrotation 
				JOINT Foot_L
				{
					OFFSET 40.9854 0.0 -1.26872e-05
					CHANNELS 6 Xposition Yposition Zposition Zrotation Xrotation Yrotation 
					JOINT Toes_L
					{
						OFFSET 11.7543 0.0 0.0
						CHANNELS 6 Xposition Yposition Zposition Zrotation Xrotation Yrotation 
						End Site
						{
							OFFSET 0.0 0.0 0.0
						}
					}
				}
			}
		}
		JOINT UpperLeg_R
		{
			OFFSET -2.19251 6.46944 0.0
			CHANNELS 6 Xposition Yposition Zposition Zrotation Xrotation Yrotation 
			JOINT LowerLeg_R
			{
				OFFSET -39.0811 -0.00228153 -0.0401928
				CHANNELS 6 Xposition Yposition Zposition Zrotation Xrotation Yrotation 
				JOINT Foot_R
				{
					OFFSET -40.9854 0.0 0.0
					CHANNELS 6 Xposition Yposition Zposition Zrotation Xrotation Yrotation 
					JOINT Toes_R
					{
						OFFSET -11.7543 0.0 0.0
						CHANNELS 6 Xposition Yposition Zposition Zrotation Xrotation Yrotation 
						End Site
						{
							OFFSET 0.0 0.0 0.0
						}
					}
				}
			}
		}
	}
}
MOTION
Frames:	4
Frame Time:	0.0333333
0.000000 0.000000 0.000000 0.000000 0.000000 -0.000000 0.123120 93.212900 -3.310740 87.260000 -1.746060 1.402760 15.735700 0.000005 -0.000001 84.682500 87.152000 -82.790100 8.984550 -0.406207 -0.000000 -2.080380 -0.690249 3.771790 16.377300 -0.000001 -0.000001 5.256450 3.704490 -1.599930 6.456720 -0.000001 -0.000000 3.131770 4.867850 -5.583420 12.994200 -0.242716 4.980390 -92.784800 8.596380 -71.973700 5.348090 -0.000007 -0.000001 -73.142700 27.953100 0.626624 24.328600 0.000019 0.000005 12.966700 28.655700 -25.648200 22.291600 -0.000001 0.000005 -3.202040 5.030100 6.672630 12.994500 -0.242716 -4.980390 88.625300 4.525150 -73.081900 -5.348130 -0.000001 -0.000004 -70.841400 27.820200 -3.203110 -24.328900 0.000322 -0.000009 2.498800 6.282220 -21.750700 -22.291500 -0.000108 -0.000004 0.619602 5.259370 1.183700 -2.192480 -6.469440 -0.000000 -177.397000 -1.092210 -3.915980 39.081100 -0.000007 -0.000012 0.164766 -0.473810 19.175300 40.985400 -0.000006 -0.000013 2.768600 8.187350 -69.317100 11.754300 -0.000000 0.000003 0.000396 0.160663 -10.060700 -2.192510 6.469440 -0.000001 -175.755000 4.477460 179.927000 -39.081100 -0.002282 -0.040193 0.040883 -0.162372 13.020900 -40.985400 0.000008 0.000006 -0.160251 3.257920 -67.390100 -11.754300 -0.000006 -0.000006 -0.012967 0.292280 -4.692210
0.000000 0.000000 0.000000 0.000000 0.000000 -0.000000 0.061278 93.224500 -3.323570 87.278800 -1.668830 1.289330 15.735700 0.000005 -0.000001 83.975400 87.174100 -82.081000 8.984550 -0.406207 -0.000000 -2.130190 -0.756535 3.774280 16.377300 -0.000001 -0.000001 5.098070 3.738740 -1.545970 6.456720 -0.000001 -0.000000 3.055930 4.921740 -5.510500 12.994200 -0.242716 4.980390 -92.748700 8.503600 -72.012600 5.348090 -0.000007 -0.000001 -73.264400 27.908300 0.703486 24.328600 0.000019 0.000005 12.978600 28.613500 -25.699500 22.291600 -0.000001 0.000005 -3.243570 5.032160 6.627780 12.994500 -0.242716 -4.980390 88.678600 4.353640 -73.098200 -5.348130 -0.000001 -0.000004 -70.577300 26.920000 -3.013920 -24.328900 0.000322 -0.000009 2.879280 6.898470 -22.727500 -22.291500 -0.000108 -0.000004 0.252893 5.258360 1.211170 -2.192480 -6.469440 -0.000000 -177.384000 -1.068700 -4.012740 39.081100 -0.000007 -0.000012 0.163238 -0.471594 19.093000 40.985400 -0.000006 -0.000013 2.726160 8.196020 -69.290300 11.754300 -0.000000 0.000003 0.000422 0.160190 -10.079900 -2.192510 6.469440 -0.000001 -175.735000 4.612690 179.878000 -39.081100 -0.002282 -0.040193 0.039454 -0.157973 12.879000 -40.985400 0.000008 0.000006 -0.129582 3.276150 -67.312800 -11.754300 -0.000006 -0.000006 -0.012823 0.291308 -4.732050
0.000000 0.000000 0.000000 0.000000 0.000000 -0.000000 0.003673 93.233600 -3.337300 87.289000 -1.553350 1.177490 15.735700 0.000005 -0.000001 83.165500 87.181600 -81.272500 8.984550 -0.406207 -0.000000 -2.152810 -0.834378 3.770030 16.377300 -0.000001 -0.000001 4.876690 3.719990 -1.368430 6.456720 -0.000001 -0.000000 2.877470 5.004210 -5.495170 12.994200 -0.242716 4.980390 -92.711100 8.417530 -72.075000 5.348090 -0.000007 -0.000001 -73.348000 27.961000 0.715806 24.328600 0.000019 0.000005 12.966400 28.571100 -25.708100 22.291600 -0.000001 0.000005 -3.175300 5.031490 6.642400 12.994500 -0.242716 -4.980390 88.725800 4.185000 -73.050000 -5.348130 -0.000001 -0.000004 -70.237300 25.729600 -2.756020 -24.328900 0.000322 -0.000009 3.297030 7.393370 -24.123400 -22.291500 -0.000108 -0.000004 0.090417 5.253420 1.342210 -2.192480 -6.469440 -0.000000 -177.342000 -0.965967 -4.120820 39.081100 -0.000007 -0.000012 0.160679 -0.466007 19.024400 40.985400 -0.000006 -0.000013 2.677570 8.263210 -69.215900 11.754300 -0.000000 0.000003 0.000464 0.159414 -10.111400 -2.192510 6.469440 -0.000001 -175.702000 4.729030 179.781000 -39.081100 -0.002282 -0.040193 0.038489 -0.154550 12.814900 -40.985400 0.000008 0.000006 -0.213880 3.299080 -67.255900 -11.754300 -0.000006 -0.000006 -0.012875 0.291664 -4.717470
0.000000 0.000000 0.000000 0.000000 0.000000 -0.000000 -0.040189 93.248500 -3.340540 87.310900 -1.561130 1.051570 15.735700 0.000005 -0.000001 83.002500 87.197400 -81.118500 8.984550 -0.406207 -0.000000 -2.186050 -0.846190 3.751520 16.377300 -0.000001 -0.000001 4.613080 3.683170 -1.122890 6.456720 -0.000001 -0.000000 2.667470 5.092610 -5.363780 12.994200 -0.242716 4.980390 -92.672900 8.323090 -72.125300 5.348090 -0.000007 -0.000001 -73.426500 28.045400 0.732803 24.328600 0.000019 0.000005 13.001400 28.568100 -25.772900 22.291600 -0.000001 0.000005 -3.280460 5.028680 6.703340 12.994500 -0.242716 -4.980390 88.802200 3.925320 -73.015500 -5.348130 -0.000001 -0.000004 -69.872600 24.456200 -2.510680 -24.328900 0.000322 -0.000009 3.667190 7.656280 -25.695100 -22.291500 -0.000108 -0.000004 0.017397 5.253190 1.348440 -2.192480 -6.469440 -0.000000 -177.332000 -0.977616 -4.175620 39.081100 -0.000007 -0.000012 0.158502 -0.463177 18.891500 40.985400 -0.000006 -0.000013 2.638430 8.285450 -69.201900 11.754300 -0.000000 0.000003 0.000384 0.160887 -10.051600 -2.192510 6.469440 -0.000001 -175.706000 4.748840 179.715000 -39.081100 -0.002282 -0.040193 0.036899 -0.149034 12.692000 -40.985400 0.000008 0.000006 -0.268858 3.365510 -67.200700 -11.754300 -0.000006 -0.000006 -0.013014 0.292591 -4.679440
